<?xml version="1.0" standalone="no"?>
<!DOCTYPE svg PUBLIC "-//W3C//DTD SVG 20010904//EN"
 "http://www.w3.org/TR/2001/REC-SVG-20010904/DTD/svg10.dtd">
<svg version="1.0" xmlns="http://www.w3.org/2000/svg"
 width="128.000000pt" height="128.000000pt" viewBox="0 0 128.000000 128.000000"
 preserveAspectRatio="xMidYMid meet">

<g transform="translate(0.000000,128.000000) scale(0.100000,-0.100000)"
fill="#000000" stroke="none">
<path d="M702 1251 c-14 -39 -32 -47 -140 -65 -127 -20 -175 -59 -191 -154 -5
-28 -12 -36 -45 -47 -94 -33 -137 -125 -101 -217 5 -13 0 -19 -22 -24 -70 -17
-123 -85 -123 -159 0 -42 12 -69 48 -108 l26 -27 486 0 486 0 26 28 c36 38 48
65 48 107 0 74 -53 142 -123 159 -24 6 -27 10 -20 29 15 42 9 114 -13 144 -28
38 -81 73 -110 73 -21 0 -24 5 -24 40 0 23 -9 59 -21 82 -23 45 -99 123 -147
150 l-30 18 -10 -29z"/>
<path d="M190 359 c0 -10 25 -100 81 -291 l20 -68 61 0 61 0 -7 37 c-3 21 -16
104 -28 186 l-22 147 -83 0 c-54 0 -83 -4 -83 -11z"/>
<path d="M433 348 c3 -13 15 -86 27 -163 30 -204 21 -185 85 -185 l55 0 0 185
0 185 -86 0 c-84 0 -86 0 -81 -22z"/>
<path d="M680 185 l0 -185 55 0 c64 0 56 -17 85 180 11 74 23 147 26 163 l6
27 -86 0 -86 0 0 -185z"/>
<path d="M902 223 c-12 -82 -25 -165 -28 -186 l-7 -37 61 0 61 0 20 68 c56
191 81 281 81 291 0 7 -29 11 -83 11 l-83 0 -22 -147z"/>
</g>
</svg>
