<?xml version="1.0" standalone="no"?>
<!DOCTYPE svg PUBLIC "-//W3C//DTD SVG 20010904//EN"
 "http://www.w3.org/TR/2001/REC-SVG-20010904/DTD/svg10.dtd">
<svg version="1.0" xmlns="http://www.w3.org/2000/svg"
 width="128.000000pt" height="128.000000pt" viewBox="0 0 128.000000 128.000000"
 preserveAspectRatio="xMidYMid meet">

<g transform="translate(0.000000,128.000000) scale(0.100000,-0.100000)"
fill="#000000" stroke="none">
<path d="M348 1040 c-177 -32 -298 -109 -298 -190 0 -14 10 -40 23 -59 12 -19
28 -44 34 -55 9 -15 13 -89 13 -263 l0 -243 375 0 375 0 0 249 0 248 30 38
c48 61 51 105 11 157 -26 32 -120 82 -196 103 -69 19 -296 28 -367 15z m77
-104 c0 -42 -29 -57 -56 -30 -29 29 -11 67 29 62 22 -2 27 -8 27 -32z m325
-10 c6 -8 10 -25 8 -38 -2 -18 -9 -23 -33 -23 -24 0 -31 5 -33 23 -4 25 13 52
33 52 7 0 18 -7 25 -14z m-509 -72 c9 -11 10 -20 2 -32 -13 -22 -43 -22 -56
-1 -24 38 25 68 54 33z m-119 -27 c58 -111 59 -114 56 -197 -4 -115 -22 -105
-28 15 -5 94 -7 103 -37 145 -18 24 -33 50 -33 57 0 24 25 13 42 -20z m411
-19 c14 -21 2 -48 -22 -48 -30 0 -45 34 -25 55 18 18 33 16 47 -7z m199 -63
c10 -22 9 -29 -10 -47 -18 -19 -25 -20 -47 -10 -16 8 -25 20 -25 35 0 50 62
66 82 22z m-376 -77 c9 -28 -20 -52 -47 -37 -19 10 -25 39 -12 52 15 16 52 6
59 -15z m-176 -178 c0 -11 -7 -20 -15 -20 -8 0 -15 9 -15 20 0 11 7 20 15 20
8 0 15 -9 15 -20z"/>
<path d="M386 943 c-11 -11 -6 -23 9 -23 8 0 15 4 15 9 0 13 -16 22 -24 14z"/>
<path d="M712 899 c2 -6 8 -10 13 -10 5 0 11 4 13 10 2 6 -4 11 -13 11 -9 0
-15 -5 -13 -11z"/>
<path d="M205 840 c-3 -5 -1 -10 4 -10 6 0 11 5 11 10 0 6 -2 10 -4 10 -3 0
-8 -4 -11 -10z"/>
<path d="M500 789 c0 -5 5 -7 10 -4 6 3 10 8 10 11 0 2 -4 4 -10 4 -5 0 -10
-5 -10 -11z"/>
<path d="M681 736 c-12 -14 -5 -26 16 -26 15 0 18 26 4 34 -5 3 -14 0 -20 -8z"/>
<path d="M799 1024 c39 -17 84 -46 113 -74 45 -43 48 -50 48 -96 0 -41 -6 -58
-32 -94 l-33 -44 -3 -243 -3 -243 136 0 135 0 0 249 0 248 30 38 c68 86 47
152 -67 212 -81 43 -161 63 -283 69 l-105 5 64 -27z"/>
</g>
</svg>
