<?xml version="1.0" standalone="no"?>
<!DOCTYPE svg PUBLIC "-//W3C//DTD SVG 20010904//EN"
 "http://www.w3.org/TR/2001/REC-SVG-20010904/DTD/svg10.dtd">
<svg version="1.0" xmlns="http://www.w3.org/2000/svg"
 width="128.000000pt" height="128.000000pt" viewBox="0 0 128.000000 128.000000"
 preserveAspectRatio="xMidYMid meet">

<g transform="translate(0.000000,128.000000) scale(0.100000,-0.100000)"
fill="#000000" stroke="none">
<path d="M253 1090 c-94 -20 -180 -88 -224 -178 -19 -38 -24 -63 -23 -132 0
-97 21 -149 93 -230 l40 -45 63 62 62 63 -31 32 c-42 45 -53 70 -53 120 0 79
57 138 135 138 20 0 46 -5 58 -11 12 -6 159 -148 327 -314 204 -203 314 -306
333 -311 59 -14 114 39 103 99 -5 26 -68 94 -319 344 -259 259 -321 316 -367
337 -63 29 -137 39 -197 26z"/>
<path d="M889 1087 c-58 -16 -125 -56 -164 -96 l-29 -32 62 -61 62 -62 32 31
c44 41 69 53 113 53 78 0 135 -59 135 -138 0 -50 -11 -75 -53 -120 l-31 -32
62 -63 63 -62 40 45 c72 81 93 133 93 230 1 74 -3 92 -27 137 -15 29 -43 69
-64 89 -71 72 -200 107 -294 81z"/>
<path d="M302 567 c-128 -128 -154 -159 -159 -189 -5 -32 -1 -41 25 -68 32
-32 59 -37 95 -19 28 14 317 300 317 314 0 13 -102 115 -115 115 -6 0 -79 -69
-163 -153z"/>
<path d="M426 341 l-59 -60 48 -30 c71 -45 139 -64 225 -64 86 0 154 19 225
64 l48 31 -61 60 -60 61 -51 -21 c-63 -28 -141 -28 -200 -2 -24 11 -46 20 -50
20 -4 0 -33 -27 -65 -59z"/>
</g>
</svg>
